<svg width="42" height="42" viewBox="0 0 42 42" fill="none" xmlns="http://www.w3.org/2000/svg">
<path d="M31.6216 39.9507C29.053 41.851 24.4867 40.7425 22.5246 39.9507C20.0275 39.9507 14.2841 39.0005 11.2874 35.1994C7.54159 30.448 2.7253 32.2302 1.11995 20.9471C-0.485401 9.66409 14.4979 3.13243 17.7086 1.35089C20.9193 -0.430638 34.2972 4.91396 36.9727 9.66471C39.6483 14.4155 41.7888 25.6985 40.7186 30.4492C39.6483 35.2 34.8323 37.5754 31.6216 39.9507Z" fill="#ECE1FD" stroke="#ECE1FD" stroke-linecap="round"/>
<path fill-rule="evenodd" clip-rule="evenodd" d="M20.4877 12.7877C21.4723 11.8031 22.8076 11.25 24.2 11.25H26.9C27.3142 11.25 27.65 11.5858 27.65 12V15.6C27.65 16.0142 27.3142 16.35 26.9 16.35H24.2C24.1602 16.35 24.1221 16.3658 24.0939 16.3939C24.0658 16.4221 24.05 16.4602 24.05 16.5V18.45H26.9C27.131 18.45 27.349 18.5564 27.4912 18.7384C27.6333 18.9205 27.6836 19.1578 27.6276 19.3819L26.7276 22.9819C26.6441 23.3158 26.3442 23.55 26 23.55H24.05V30C24.05 30.4142 23.7142 30.75 23.3 30.75H19.7C19.2858 30.75 18.95 30.4142 18.95 30V23.55H17C16.5858 23.55 16.25 23.2142 16.25 22.8V19.2C16.25 18.7858 16.5858 18.45 17 18.45H18.95V16.5C18.95 15.1076 19.5031 13.7723 20.4877 12.7877ZM24.2 12.75C23.2054 12.75 22.2516 13.1451 21.5483 13.8483C20.8451 14.5516 20.45 15.5054 20.45 16.5V19.2C20.45 19.6142 20.1142 19.95 19.7 19.95H17.75V22.05H19.7C20.1142 22.05 20.45 22.3858 20.45 22.8V29.25H22.55V22.8C22.55 22.3858 22.8858 22.05 23.3 22.05H25.4144L25.9394 19.95H23.3C22.8858 19.95 22.55 19.6142 22.55 19.2V16.5C22.55 16.0624 22.7238 15.6427 23.0333 15.3333C23.3427 15.0238 23.7624 14.85 24.2 14.85H26.15V12.75H24.2Z" fill="#5B28B5"/>
</svg>
