<svg width="58" height="67" viewBox="0 0 58 67" fill="none" xmlns="http://www.w3.org/2000/svg">
<path fill-rule="evenodd" clip-rule="evenodd" d="M35.6401 12.3666C37.3438 9.92328 35.4313 6.73498 35.4313 6.73498C35.4313 6.73498 34.8882 5.36907 32.8356 4.38839C30.209 3.1335 28.5048 5.42975 26.6621 7.91267C25.5186 9.45346 24.3218 11.0661 22.818 11.9467C20.4384 13.3402 19.7577 12.5232 18.3328 10.4288C17.6395 9.09241 17.2741 8.24053 16.9871 7.57163C16.3487 6.08341 16.0989 5.50099 13.4913 2.50391C9.91036 -1.21698 1.28873 1.29848 0.46637 7.23546C-0.355985 13.1725 12.3006 24.2795 14.1359 25.6859C15.9712 27.0923 16.9627 31.6363 8.9769 31.9143C3.52665 32.065 3.4408 37.1623 5.64232 39.9015C6.97435 41.7264 9.87902 40.4465 12.6281 39.2351C14.0557 38.6061 15.4413 37.9955 16.543 37.8479C19.766 37.4159 21.5542 38.4807 14.5663 49.9596C7.57846 61.4384 9.64935 64.5526 12.0179 65.8585C14.9904 67.5763 23.7836 65.2189 23.5416 56.8542C23.2996 48.4895 26.1928 45.6667 27.4135 45.2615C28.6578 45.0271 30.3517 45.4088 30.9428 47.0496C31.0025 47.1922 31.1235 47.6522 31.2936 48.2987C31.8987 50.5985 33.1247 55.2581 34.4185 56.382C36.0761 57.8219 39.963 56.9144 40.4277 53.673C40.6323 51.3862 38.8137 49.2134 36.8479 46.8647C36.0561 45.9187 35.2404 44.9441 34.5235 43.9221C32.4719 40.9976 34.2402 39.4092 35.8177 37.9921C36.1602 37.6844 36.4938 37.3847 36.7773 37.0812C38.4992 36.2885 40.247 37.2965 42.2174 38.4329C43.4555 39.147 44.7815 39.9117 46.2442 40.3123C50.0347 41.3503 52.429 40.1984 53.095 37.0943C53.7375 33.8194 48.0752 32.4331 45.1605 32.4566C42.4236 32.4466 39.9609 30.4575 41.2651 29.3358C42.5693 28.214 45.1199 24.2292 42.7406 21.5236C40.3613 18.818 35.4893 21.8384 33.9838 22.8228C32.5018 23.9781 29.9105 21.8674 28.7155 19.8148C28.1072 18.5672 30.0244 17.1211 32.0698 15.5782C33.4447 14.541 34.8776 13.4602 35.6401 12.3666ZM57.0773 12.7126C56.8339 15.7812 53.9488 18.2637 50.6335 18.2575C47.3181 18.2513 44.8278 15.7587 45.0712 12.6901C45.3147 9.62153 48.1997 7.139 51.5151 7.14521C54.8305 7.15143 57.3208 9.64403 57.0773 12.7126Z" fill="#ECE1FD"/>
</svg>
