<svg width="42" height="42" viewBox="0 0 42 42" fill="none" xmlns="http://www.w3.org/2000/svg">
<path d="M27.5947 2.09846C24.7519 0.109046 18.5135 1.26954 15.7497 2.09846C13.5781 3.54881 8.28731 7.56855 4.49691 12.0447C-0.241088 17.6399 1.53558 25.7219 2.12784 28.8304C2.72009 31.9388 8.05041 37.534 21.0799 40.6425C34.1094 43.7509 40.6242 25.7219 41.2164 20.1267C41.8087 14.5315 39.4397 13.9098 35.8862 10.8013C32.3327 7.69289 31.1482 4.58522 27.5947 2.09846Z" fill="#ECE1FD" stroke="#ECE1FD" stroke-linecap="round"/>
<path fill-rule="evenodd" clip-rule="evenodd" d="M11.8035 17.234C11.5234 19.8369 11.5359 22.8389 11.9257 25.4312C12.1414 26.8656 13.3121 27.9653 14.7571 28.0909L16.2674 28.2222C19.4164 28.4959 22.5833 28.4959 25.7323 28.2222L27.2426 28.0909C28.6876 27.9653 29.8583 26.8656 30.074 25.4312C30.4638 22.8389 30.4763 19.8371 30.1962 17.2342C30.16 16.9324 30.1192 16.6311 30.074 16.3302C29.8583 14.8958 28.6876 13.7962 27.2426 13.6706L25.7323 13.5393C22.5833 13.2655 19.4164 13.2655 16.2674 13.5393L14.7571 13.6706C13.3121 13.7962 12.1414 14.8958 11.9257 16.3302C11.8805 16.631 11.8398 16.9323 11.8035 17.234ZM16.3973 15.0337C19.4599 14.7674 22.5398 14.7674 25.6024 15.0337L27.1127 15.1649C27.867 15.2305 28.4781 15.8045 28.5907 16.5533C28.6024 16.631 28.6137 16.7088 28.6248 16.7867L23.0638 19.8761C21.7802 20.5892 20.2194 20.5892 18.9358 19.8761L13.3749 16.7867C13.386 16.7089 13.3973 16.6311 13.409 16.5533C13.5216 15.8045 14.1327 15.2305 14.887 15.1649L16.3973 15.0337ZM28.8084 18.4006C29.0023 20.6684 28.9298 22.9532 28.5907 25.2082C28.4781 25.9569 27.867 26.531 27.1127 26.5965L25.6024 26.7278C22.5398 26.994 19.4599 26.994 16.3973 26.7278L14.887 26.5965C14.1327 26.531 13.5216 25.9569 13.409 25.2082C13.0699 22.9532 12.9974 20.6684 13.1913 18.4007L18.2074 21.1873C19.944 22.1521 22.0556 22.1521 23.7923 21.1873L28.8084 18.4006Z" fill="#5B28B5" stroke="#5B28B5" stroke-width="0.5" stroke-linejoin="round"/>
</svg>
