<svg width="42" height="42" viewBox="0 0 42 42" fill="none" xmlns="http://www.w3.org/2000/svg">
<path d="M30.4163 38.5251C26.9943 39.0201 24.1019 40.3813 23.0835 41C22.2687 41 18.5615 40.505 10.2508 38.5251C-0.137669 36.0502 2.30715 18.7254 1.08501 14.3943C-0.137129 10.0633 12.0842 5.7329 20.6392 2.02058C29.1942 -1.69175 33.4716 5.7329 38.3602 8.20779C43.2487 10.6827 40.1934 25.532 38.3602 28.0069C36.527 30.4817 34.6938 37.9064 30.4163 38.5251Z" fill="#ECE1FD" stroke="#ECE1FD" stroke-linecap="round"/>
<path d="M25.0002 15.9996C25.0002 15.4473 25.4479 14.9996 26.0002 14.9996C26.5525 14.9996 27.0002 15.4473 27.0002 15.9996C27.0002 16.5518 26.5525 16.9996 26.0002 16.9996C25.4479 16.9996 25.0002 16.5518 25.0002 15.9996Z" fill="#5B28B5"/>
<path fill-rule="evenodd" clip-rule="evenodd" d="M21.0002 16.2496C18.3768 16.2496 16.2502 18.3762 16.2502 20.9996C16.2502 23.6229 18.3768 25.7496 21.0002 25.7496C23.6235 25.7496 25.7502 23.6229 25.7502 20.9996C25.7502 18.3762 23.6235 16.2496 21.0002 16.2496ZM17.7502 20.9996C17.7502 19.2046 19.2053 17.7496 21.0002 17.7496C22.7951 17.7496 24.2502 19.2046 24.2502 20.9996C24.2502 22.7945 22.7951 24.2496 21.0002 24.2496C19.2053 24.2496 17.7502 22.7945 17.7502 20.9996Z" fill="#5B28B5"/>
<path fill-rule="evenodd" clip-rule="evenodd" d="M26.2584 11.8326C22.7919 11.4451 19.2085 11.4451 15.742 11.8326C13.7299 12.0574 12.1056 13.6425 11.869 15.665C11.4545 19.2093 11.4545 22.7898 11.869 26.3341C12.1056 28.3567 13.7299 29.9417 15.742 30.1665C19.2085 30.554 22.7919 30.554 26.2584 30.1665C28.2705 29.9417 29.8948 28.3567 30.1314 26.3341C30.5459 22.7898 30.5459 19.2093 30.1314 15.665C29.8948 13.6425 28.2705 12.0574 26.2584 11.8326ZM15.9086 13.3233C19.2644 12.9482 22.736 12.9482 26.0918 13.3233C27.4219 13.472 28.4874 14.5216 28.6415 15.8392C29.0425 19.2678 29.0425 22.7313 28.6415 26.1599C28.4874 27.4775 27.4219 28.5272 26.0918 28.6758C22.736 29.0509 19.2644 29.0509 15.9086 28.6758C14.5785 28.5272 13.513 27.4775 13.3589 26.1599C12.9579 22.7313 12.9579 19.2678 13.3589 15.8392C13.513 14.5216 14.5785 13.472 15.9086 13.3233Z" fill="#5B28B5"/>
<path d="M25.0002 15.9996C25.0002 15.4473 25.4479 14.9996 26.0002 14.9996C26.5525 14.9996 27.0002 15.4473 27.0002 15.9996C27.0002 16.5518 26.5525 16.9996 26.0002 16.9996C25.4479 16.9996 25.0002 16.5518 25.0002 15.9996Z" stroke="#5B28B5" stroke-width="0.5" stroke-linejoin="round"/>
<path fill-rule="evenodd" clip-rule="evenodd" d="M21.0002 16.2496C18.3768 16.2496 16.2502 18.3762 16.2502 20.9996C16.2502 23.6229 18.3768 25.7496 21.0002 25.7496C23.6235 25.7496 25.7502 23.6229 25.7502 20.9996C25.7502 18.3762 23.6235 16.2496 21.0002 16.2496ZM17.7502 20.9996C17.7502 19.2046 19.2053 17.7496 21.0002 17.7496C22.7951 17.7496 24.2502 19.2046 24.2502 20.9996C24.2502 22.7945 22.7951 24.2496 21.0002 24.2496C19.2053 24.2496 17.7502 22.7945 17.7502 20.9996Z" stroke="#5B28B5" stroke-width="0.5" stroke-linejoin="round"/>
<path fill-rule="evenodd" clip-rule="evenodd" d="M26.2584 11.8326C22.7919 11.4451 19.2085 11.4451 15.742 11.8326C13.7299 12.0574 12.1056 13.6425 11.869 15.665C11.4545 19.2093 11.4545 22.7898 11.869 26.3341C12.1056 28.3567 13.7299 29.9417 15.742 30.1665C19.2085 30.554 22.7919 30.554 26.2584 30.1665C28.2705 29.9417 29.8948 28.3567 30.1314 26.3341C30.5459 22.7898 30.5459 19.2093 30.1314 15.665C29.8948 13.6425 28.2705 12.0574 26.2584 11.8326ZM15.9086 13.3233C19.2644 12.9482 22.736 12.9482 26.0918 13.3233C27.4219 13.472 28.4874 14.5216 28.6415 15.8392C29.0425 19.2678 29.0425 22.7313 28.6415 26.1599C28.4874 27.4775 27.4219 28.5272 26.0918 28.6758C22.736 29.0509 19.2644 29.0509 15.9086 28.6758C14.5785 28.5272 13.513 27.4775 13.3589 26.1599C12.9579 22.7313 12.9579 19.2678 13.3589 15.8392C13.513 14.5216 14.5785 13.472 15.9086 13.3233Z" stroke="#5B28B5" stroke-width="0.5" stroke-linejoin="round"/>
</svg>
