<svg width="42" height="42" viewBox="0 0 42 42" fill="none" xmlns="http://www.w3.org/2000/svg">
<path d="M26.3588 39.6753C23.4475 40.1803 21.911 40.7274 21.5067 40.9378C9.98289 42.2003 -1.54096 23.8928 1.49161 18.2115C4.52418 12.5303 7.55683 6.21881 12.4089 2.43129C17.2611 -1.35624 32.8487 3.39602 34.8499 4.9568C37.2759 6.84894 39.7021 13.7939 40.9151 23.2627C42.1282 32.7315 29.9979 39.044 26.3588 39.6753Z" fill="#ECE1FD" stroke="#ECE1FD" stroke-linecap="round"/>
<path fill-rule="evenodd" clip-rule="evenodd" d="M14.8405 18.8562C16.6278 22.7481 19.8083 25.8422 23.762 27.5188L23.7745 27.5241L24.5383 27.8646C25.511 28.2979 26.6542 27.9901 27.2778 27.1271L28.5522 25.3633C28.63 25.2556 28.6099 25.1058 28.5065 25.0223L26.2818 23.2275C26.1712 23.1383 26.0085 23.1591 25.9239 23.2732L25.0581 24.4416C24.8478 24.7254 24.468 24.824 24.1463 24.6784C21.1899 23.3404 18.8142 20.9647 17.4762 18.0083C17.3306 17.6866 17.4292 17.3068 17.713 17.0965L18.8813 16.2307C18.9955 16.1461 19.0163 15.9834 18.9271 15.8728L17.132 13.6478C17.0486 13.5444 16.8988 13.5243 16.7911 13.6021L15.0178 14.8822C14.149 15.5094 13.8431 16.6623 14.2865 17.6377L14.8399 18.8549C14.8401 18.8553 14.8403 18.8557 14.8405 18.8562ZM23.1701 28.8971C18.8741 27.0735 15.4187 23.7105 13.4767 19.4808L13.4755 19.4782L12.921 18.2585C12.1819 16.6327 12.6919 14.7113 14.1398 13.666L15.9131 12.3859C16.6672 11.8415 17.7155 11.9821 18.2995 12.706L20.0945 14.931C20.7191 15.7052 20.5736 16.8436 19.7744 17.4358L19.1049 17.932C20.2359 20.1264 22.0282 21.9187 24.2226 23.0497L24.7188 22.3801C25.311 21.581 26.4494 21.4355 27.2236 22.0601L29.4483 23.8549C30.1724 24.439 30.3129 25.4877 29.768 26.2418L28.4936 28.0055C27.4543 29.444 25.5489 29.957 23.9279 29.2347L23.1701 28.8971Z" fill="#5B28B5" stroke="#5B28B5" stroke-width="0.5" stroke-linejoin="round"/>
</svg>
