<svg width="42" height="42" viewBox="0 0 42 42" fill="none" xmlns="http://www.w3.org/2000/svg">
<path d="M37.3409 34.2654C33.9536 38.6735 25.4451 40.5918 21.6142 41C18.3881 41 10.4843 39.6531 4.67757 34.2654C-2.58091 27.5309 3.468 19.5727 1.65338 14.0617C-0.161243 8.55083 14.3557 3.04155 21.6142 1.20485C28.8727 -0.631847 40.9701 10.3883 40.9701 14.0617C40.9701 17.7351 41.575 28.7553 37.3409 34.2654Z" fill="#ECE1FD" stroke="#ECE1FD" stroke-linecap="round"/>
<path fill-rule="evenodd" clip-rule="evenodd" d="M24.821 9.67071C24.8247 9.67071 24.8277 9.66773 24.8277 9.66406C24.8891 10.1922 24.9897 10.6846 25.1291 11.1392C25.771 13.2331 27.2353 14.5262 29.4787 14.8308C29.7704 14.8704 29.9998 15.1118 29.9998 15.4062V17.9127C29.9998 18.2002 29.7814 18.4438 29.4939 18.4488C28.2119 18.4711 27.0254 18.0939 25.7424 17.4143C25.3577 17.2105 24.8809 17.4797 24.8809 17.915V23.5385C24.8809 31.9416 15.7199 34.5675 12.0369 28.5444C9.7318 24.7696 11.0466 18.2199 18.131 17.6295C18.4463 17.6033 18.7115 17.8579 18.7115 18.1744V20.8486C18.7115 21.123 18.512 21.3553 18.2432 21.4101C17.8079 21.4989 17.3645 21.6153 16.9498 21.7568C15.2612 22.3285 14.3039 23.3989 14.5698 25.2869C15.0817 28.9034 21.7164 29.9738 21.1646 22.9069V10.2295C21.1646 9.9209 21.4148 9.67071 21.7234 9.67071H24.821ZM23.5807 11.1707H22.6646V22.8503C22.8078 24.8023 22.4759 26.4056 21.6908 27.595C20.8774 28.8273 19.668 29.4717 18.4138 29.5959C16.0638 29.8285 13.4673 28.2007 13.0846 25.4971L13.0844 25.4961C12.9088 24.2494 13.1229 23.0982 13.8127 22.1474C14.4768 21.2319 15.4545 20.6797 16.4671 20.3366C16.7112 20.2534 16.961 20.1785 17.2115 20.1119V19.2689C14.8534 19.737 13.5524 21.0437 12.9438 22.4786C12.2105 24.207 12.4114 26.2795 13.3171 27.7627C14.7703 30.1386 17.2266 30.77 19.3485 30.0341C21.4576 29.3026 23.3809 27.142 23.3809 23.5385V17.915C23.3809 16.273 25.129 15.392 26.4445 16.0887C27.2008 16.4893 27.8641 16.7432 28.4998 16.8647V16.1734C27.1644 15.8568 26.0189 15.2067 25.1375 14.2156C24.3826 13.3668 23.8761 12.3299 23.5807 11.1707Z" fill="#5B28B5"/>
</svg>
