<svg width="57" height="66" viewBox="0 0 57 66" fill="none" xmlns="http://www.w3.org/2000/svg">
<path d="M35.2002 11.8173C36.9023 9.37466 34.9893 6.18062 34.9893 6.18062C34.9893 6.18062 34.4459 4.81269 32.3937 3.82789C29.7676 2.56773 28.065 4.86315 26.224 7.34519C25.0815 8.88542 23.8858 10.4975 22.3829 11.3764C20.0048 12.7672 19.324 11.9485 17.8989 9.84997C17.2053 8.51139 16.8397 7.65821 16.5526 6.9883C15.9139 5.49781 15.6639 4.91449 13.0561 1.91071C9.47516 -1.81905 0.857838 0.684641 0.0381113 6.62527C-0.781616 12.5659 11.8744 23.7026 13.7095 25.1132C15.5447 26.5237 16.5376 31.073 8.55494 31.3384C3.10687 31.4804 3.02304 36.582 5.22477 39.3269C6.55699 41.1555 9.46004 39.8792 12.2076 38.6713C13.6344 38.044 15.0193 37.4351 16.1204 37.2891C19.342 36.862 21.13 37.9306 14.1493 49.4078C7.16854 60.885 9.23983 64.0051 11.608 65.3159C14.58 67.0399 23.3689 64.6947 23.1237 56.3226C22.8785 47.9506 25.7696 45.13 26.9896 44.7265C28.2333 44.4939 29.9267 44.8786 30.5182 46.5217C30.5779 46.6645 30.6991 47.1251 30.8694 47.7724C31.4752 50.0751 32.7025 54.7406 33.9962 55.8675C35.6537 57.3113 39.5388 56.4093 40.0021 53.1659C40.2057 50.8775 38.3869 48.7 36.421 46.3462C35.6291 45.3981 34.8134 44.4214 34.0963 43.3973C32.0444 40.4671 33.8114 38.8802 35.3877 37.4645C35.73 37.157 36.0633 36.8577 36.3466 36.5544C38.0676 35.7638 39.8151 36.7755 41.7851 37.916C43.023 38.6326 44.3488 39.4001 45.8111 39.8034C49.6005 40.8484 51.9934 39.6994 52.658 36.5937C53.2989 33.3171 47.6383 31.9206 44.7248 31.9394C41.989 31.9249 39.5263 29.9303 40.8296 28.8097C42.1329 27.6891 44.6809 23.705 42.3015 20.9933C39.9221 18.2816 35.0532 21.2967 33.5486 22.2796C32.0677 23.4334 29.4765 21.3168 28.2812 19.2605C27.6726 18.011 29.5886 16.5667 31.6325 15.0258C33.0066 13.99 34.4384 12.9105 35.2002 11.8173Z" fill="#5B28B5"/>
<path d="M56.6495 12.1752C56.4072 15.2385 53.5222 17.7125 50.2057 17.701C46.8891 17.6895 44.397 15.1969 44.6394 12.1336C44.8817 9.0703 47.7667 6.59629 51.0832 6.60778C54.3997 6.61926 56.8919 9.11188 56.6495 12.1752Z" fill="#5B28B5"/>
</svg>
